<svg width="22" height="24" viewBox="0 0 22 24" fill="none" xmlns="http://www.w3.org/2000/svg">
<g clip-path="url(#clip0_1131_34949)">
<path d="M22 11.8108V14.9623C22 16.6484 21.0275 18.0276 19.8345 18.0276H19.1862V19.1077C19.1852 19.9961 18.8289 20.8478 18.1954 21.476C17.5619 22.1042 16.7031 22.4575 15.8072 22.4585H14.8201C14.7524 22.7271 14.5961 22.9656 14.3762 23.1361C14.1563 23.3066 13.8853 23.3995 13.6061 23.3999H11.3018C10.9703 23.3988 10.6529 23.2675 10.4188 23.0349C10.1847 22.8023 10.053 22.4871 10.0526 22.1585V21.6399C10.0537 21.3117 10.1857 20.9973 10.4198 20.7654C10.6538 20.5334 10.9709 20.4026 11.3018 20.4016H13.6061C13.8835 20.4024 14.1527 20.4944 14.3717 20.6632C14.5907 20.832 14.7471 21.0681 14.8163 21.3345H15.8034C16.3994 21.3339 16.9707 21.0989 17.3921 20.681C17.8135 20.2631 18.0505 19.6965 18.051 19.1056V18.0276H17.0099C16.6571 18.0276 16.3713 17.623 16.3713 17.1242V9.64888C16.3713 9.15006 16.6571 8.745 17.0099 8.745H17.165V8.33512C17.1628 6.94553 16.6048 5.61354 15.6135 4.63146C14.6222 3.64937 13.2784 3.09741 11.8772 3.0967H10.225C8.82426 3.09826 7.48135 3.6506 6.49071 4.63259C5.50006 5.61459 4.94254 6.94609 4.9404 8.33512V8.74286H4.99443C5.34723 8.74286 5.63251 9.14791 5.63251 9.64673V17.1221C5.63251 17.6209 5.34723 18.0254 4.99443 18.0254H2.16548C0.976842 18.0254 0 16.6463 0 14.9602V11.8108C0 10.1247 0.97252 8.745 2.16548 8.745H2.42211V8.33512C2.42211 4.06863 5.9221 0.597778 10.2244 0.597778H11.8772C16.1784 0.597778 19.6789 4.06863 19.6789 8.33512V8.74286H19.8329C21.0253 8.745 22 10.1247 22 11.8108Z" fill="#FF3B30"/>
</g>
<defs>
<clipPath id="clip0_1131_34949">
<rect width="22" height="22.8" fill="white" transform="translate(0 0.600006)"/>
</clipPath>
</defs>
</svg>
