<svg width="11" height="11" viewBox="0 0 11 11" fill="none" xmlns="http://www.w3.org/2000/svg">
<g clip-path="url(#clip0_3869_7621)">
<path d="M10.9008 7.72497V7.87482C10.8748 7.86365 10.8841 7.88878 10.878 7.89763C10.6686 8.13729 10.4271 8.34066 10.1595 8.51239C9.3809 9.01173 8.51483 9.23791 7.60549 9.324C7.27833 9.35518 6.94977 9.35844 6.62075 9.34169C6.31081 9.32633 6.00366 9.29096 5.69977 9.23372C5.03428 9.10853 4.40184 8.89213 3.82756 8.52449C3.80662 8.51099 3.78801 8.50541 3.76427 8.51611C3.49203 8.63432 3.20815 8.70738 2.91217 8.73204C2.78931 8.74228 2.66692 8.73809 2.54406 8.73577C2.5152 8.7353 2.49752 8.71715 2.48449 8.69621C2.4682 8.66922 2.49845 8.66084 2.51009 8.64735C2.65528 8.47795 2.77302 8.29273 2.83073 8.0754C2.88378 7.87668 2.90798 7.68123 2.78 7.49414C2.5287 7.12743 2.35465 6.72302 2.22621 6.29906C1.9749 5.46836 1.91254 4.62138 2.01167 3.76136C2.08613 3.11496 2.25739 2.4974 2.55336 1.91615C2.83119 1.3698 3.2128 0.913262 3.71913 0.563764C3.75031 0.542357 3.79359 0.538634 3.81453 0.501404H8.76427C8.76939 0.531653 8.79499 0.522346 8.81267 0.524673C8.91552 0.538634 9.01976 0.545149 9.12168 0.56516C9.62987 0.665216 10.065 0.895577 10.3898 1.30744C10.717 1.72162 10.8799 2.19863 10.8813 2.72357C10.8859 4.36682 10.8831 6.00959 10.8831 7.65284C10.8831 7.67378 10.8831 7.69472 10.8841 7.7152C10.8845 7.72497 10.8869 7.73754 10.9017 7.72637L10.9008 7.72497ZM4.59916 4.21464C4.5945 4.2421 4.57682 4.25466 4.56425 4.27048C4.15705 4.77914 3.75171 5.28919 3.34125 5.79552C3.25701 5.8993 3.21187 6.00866 3.20815 6.14223C3.20675 6.199 3.21746 6.21343 3.27237 6.21296C3.85735 6.21157 4.44279 6.21296 5.02777 6.21203C5.11898 6.21203 5.16785 6.16736 5.19019 6.078C5.20322 6.02635 5.19903 5.97423 5.19763 5.92257C5.19484 5.8267 5.19344 5.82717 5.09944 5.82717C4.68898 5.82717 4.27898 5.82717 3.86852 5.82717C3.84664 5.82717 3.82384 5.83368 3.80336 5.82158C3.80011 5.80483 3.81221 5.79738 3.81919 5.78854C4.2343 5.26499 4.64802 4.74005 5.06686 4.21929C5.1497 4.11644 5.18786 4.00475 5.19903 3.87724C5.20368 3.82186 5.19205 3.80371 5.13155 3.80418C4.66291 3.80697 4.19475 3.80557 3.72611 3.80557C3.59069 3.80557 3.45526 3.80697 3.31984 3.80464C3.27889 3.80418 3.26539 3.81628 3.26679 3.8577C3.26958 3.95124 3.27237 4.04524 3.26586 4.13878C3.26167 4.20347 3.28261 4.21697 3.3445 4.2165C3.76102 4.21371 4.17706 4.2151 4.59823 4.2151L4.59916 4.21464ZM6.79573 4.50969C6.3997 4.33098 6.32943 4.3119 6.0972 4.35053C5.84637 4.39241 5.643 4.51806 5.49035 4.7219C5.2344 5.06488 5.26046 5.56749 5.53131 5.89092C5.80122 6.21343 6.35409 6.35537 6.78363 6.04869C6.78968 6.06218 6.79666 6.07475 6.80178 6.08824C6.83296 6.17573 6.893 6.21808 6.98747 6.2125C7.03726 6.20924 7.08752 6.21017 7.13732 6.2125C7.17129 6.21436 7.17874 6.20086 7.17874 6.16968C7.17781 5.59308 7.17781 5.01648 7.17874 4.43988C7.17874 4.39986 7.16478 4.39055 7.12801 4.39195C7.05309 4.39427 6.97816 4.39241 6.90323 4.39241C6.8266 4.39241 6.79077 4.4315 6.79573 4.50969ZM9.14728 4.32493C8.62978 4.32493 8.20117 4.7568 8.2007 5.27895C8.2007 5.80436 8.62699 6.23391 9.151 6.2353C9.66431 6.23716 10.1008 5.79273 10.0976 5.27197C10.0943 4.75913 9.65919 4.3254 9.14728 4.32493ZM7.92567 4.99414C7.92567 4.60695 7.9252 4.21976 7.9266 3.83257C7.9266 3.79022 7.91775 3.77439 7.87215 3.77626C7.77256 3.77998 7.67204 3.78044 7.57245 3.77626C7.52079 3.77393 7.51195 3.79254 7.51195 3.83955C7.51334 4.14995 7.51102 4.45989 7.51102 4.7703C7.51102 5.20124 7.51195 5.63217 7.51427 6.06311C7.51474 6.15665 7.5664 6.20924 7.66133 6.21389C7.72974 6.21715 7.79862 6.20831 7.86703 6.21296C7.91962 6.21669 7.92613 6.19621 7.92613 6.1506C7.92474 5.76527 7.9252 5.38041 7.9252 4.99507L7.92567 4.99414Z" fill="#FEFEFE"/>
<path d="M3.81123 0.5C3.79075 0.53723 3.74747 0.540488 3.71582 0.56236C3.20949 0.911858 2.82835 1.36886 2.55006 1.91474C2.25408 2.496 2.08282 3.11355 2.00836 3.75996C1.90923 4.62044 1.97159 5.46742 2.2229 6.29765C2.35134 6.72161 2.52493 7.12602 2.77669 7.49274C2.90514 7.67982 2.88047 7.87528 2.82742 8.074C2.76971 8.29133 2.65197 8.47701 2.50678 8.64594C2.49514 8.65944 2.46489 8.66782 2.48118 8.69481C2.49421 8.71621 2.5119 8.7339 2.54075 8.73436C2.66361 8.73669 2.786 8.74088 2.90886 8.73064C3.20531 8.70598 3.48872 8.63291 3.76097 8.51471C3.78516 8.50447 3.80378 8.51005 3.82426 8.52308C4.39853 8.89073 5.03051 9.10713 5.69646 9.23232C6.00035 9.28956 6.30797 9.32493 6.61744 9.34028C6.94646 9.35657 7.27502 9.35331 7.60218 9.3226C8.51152 9.2365 9.37805 9.01033 10.1562 8.51098C10.4238 8.33926 10.6653 8.13635 10.8747 7.89622C10.8826 7.89622 10.8887 7.90925 10.8975 7.89855V8.32344C10.877 8.34066 10.8761 8.34066 10.8747 8.36486C10.8659 8.51471 10.844 8.6627 10.8086 8.80836C10.6239 9.56506 10.1645 10.0784 9.43529 10.3497C9.23332 10.4251 9.02064 10.453 8.8075 10.4749C8.78749 10.4767 8.75491 10.4595 8.74747 10.4986H3.06151C3.06011 10.466 3.03265 10.4786 3.01822 10.4777C2.91258 10.4698 2.80694 10.4577 2.7027 10.4372C1.90551 10.2836 1.35776 9.828 1.06225 9.07269C0.976155 8.85257 0.940787 8.61988 0.920776 8.38533C0.918914 8.36486 0.934737 8.33367 0.898438 8.3239V2.63747C0.918914 2.61932 0.919379 2.61932 0.921241 2.59512C0.931014 2.45551 0.954748 2.31822 0.986859 2.1828C1.14788 1.51405 1.5374 1.02774 2.15681 0.727569C2.41091 0.604244 2.68315 0.54933 2.96285 0.522803C2.98379 0.520942 3.0145 0.535369 3.02427 0.5H3.81169H3.81123Z" fill="#003553"/>
<path d="M10.8998 7.89995C10.8909 7.91065 10.8844 7.89809 10.877 7.89762C10.8835 7.88878 10.8742 7.86365 10.8998 7.87482V7.89995Z" fill="#003553"/>
<path d="M4.59917 4.21464C4.17847 4.21464 3.76196 4.21324 3.34545 4.21603C3.28309 4.21603 3.26215 4.203 3.2668 4.13832C3.27285 4.04524 3.27006 3.95077 3.26773 3.85723C3.26634 3.81581 3.27983 3.80371 3.32079 3.80418C3.45621 3.8065 3.59164 3.80511 3.72706 3.80511C4.19569 3.80511 4.66386 3.8065 5.13249 3.80371C5.19299 3.80371 5.20463 3.82186 5.19997 3.87677C5.18881 4.00429 5.15018 4.11598 5.06781 4.21883C4.64897 4.73958 4.23572 5.26453 3.82013 5.78807C3.81315 5.79738 3.80105 5.80483 3.80431 5.82112C3.82479 5.83275 3.84759 5.8267 3.86946 5.8267C4.27993 5.82717 4.68992 5.8267 5.10038 5.8267C5.19439 5.8267 5.19625 5.8267 5.19858 5.9221C5.19997 5.97376 5.20416 6.02588 5.19113 6.07754C5.16879 6.16689 5.11993 6.21157 5.02872 6.21157C4.44374 6.2125 3.8583 6.21157 3.27332 6.2125C3.21887 6.2125 3.2077 6.19807 3.2091 6.14176C3.21282 6.0082 3.25796 5.8993 3.34219 5.79505C3.75266 5.28873 4.158 4.77914 4.5652 4.27002C4.57777 4.2542 4.59545 4.24163 4.6001 4.21417L4.59917 4.21464Z" fill="#003553"/>
<path d="M6.79575 4.50968C6.79079 4.4315 6.82662 4.39241 6.90325 4.39241C6.97818 4.39241 7.05311 4.3938 7.12803 4.39194C7.1648 4.39101 7.17876 4.40032 7.17876 4.43988C7.17736 5.01648 7.17783 5.59308 7.17876 6.16968C7.17876 6.20132 7.17131 6.21435 7.13734 6.21249C7.08754 6.2097 7.03728 6.20924 6.98749 6.21249C6.89302 6.21808 6.83345 6.17573 6.8018 6.08824C6.79715 6.07474 6.7897 6.06218 6.78365 6.04868C6.35365 6.35536 5.80124 6.21342 5.53133 5.89092C5.26048 5.56748 5.23442 5.06488 5.49037 4.72189C5.64255 4.51759 5.84592 4.39194 6.09722 4.35052C6.32991 4.3119 6.39972 4.33098 6.79575 4.50968ZM6.24894 5.83507C6.55283 5.83507 6.80134 5.58098 6.79808 5.2729C6.79482 4.96994 6.54724 4.72515 6.24149 4.72282C5.93993 4.7205 5.69188 4.97273 5.69049 5.28314C5.68909 5.58842 5.93807 5.83461 6.24894 5.83461V5.83507Z" fill="#003553"/>
<path d="M9.14775 4.32495C9.65966 4.32495 10.0953 4.75915 10.098 5.27199C10.1013 5.79275 9.66431 6.23718 9.15147 6.23532C8.62746 6.23346 8.20071 5.80438 8.20117 5.27897C8.20117 4.75682 8.63025 4.32495 9.14775 4.32495ZM9.14123 5.84254C9.44838 5.8472 9.70155 5.59915 9.7062 5.28921C9.71085 4.97415 9.46606 4.72145 9.14821 4.71447C8.8527 4.70796 8.59302 4.96531 8.58837 5.27013C8.58371 5.58333 8.82943 5.83789 9.14123 5.84254Z" fill="#003553"/>
<path d="M7.9259 4.99416C7.9259 5.37949 7.92544 5.76436 7.92683 6.14969C7.92683 6.19529 7.92032 6.21577 7.86773 6.21205C7.79932 6.20739 7.73045 6.2167 7.66204 6.21298C7.56756 6.20833 7.51544 6.15574 7.51498 6.0622C7.51265 5.63126 7.51172 5.20032 7.51172 4.76938C7.51172 4.45898 7.51358 4.14904 7.51265 3.83863C7.51265 3.79163 7.52149 3.77301 7.57315 3.77534C7.67274 3.77999 7.77326 3.77906 7.87285 3.77534C7.91846 3.77394 7.9273 3.78977 7.9273 3.83165C7.9259 4.21884 7.92637 4.60604 7.92637 4.99323L7.9259 4.99416Z" fill="#003553"/>
<path d="M6.24791 5.83507C5.93704 5.83507 5.68806 5.58842 5.68946 5.2836C5.69086 4.97272 5.9389 4.72096 6.24046 4.72328C6.54622 4.72561 6.7938 4.96993 6.79705 5.27336C6.80031 5.58144 6.5518 5.836 6.24791 5.83553V5.83507Z" fill="#FEFEFE"/>
<path d="M9.14082 5.84249C8.82902 5.83783 8.5833 5.58374 8.58796 5.27007C8.59261 4.96525 8.85229 4.7079 9.1478 4.71442C9.46566 4.7214 9.71044 4.9741 9.70579 5.28916C9.70114 5.5991 9.44797 5.84668 9.14082 5.84249Z" fill="#FEFEFE"/>
</g>
<defs>
<clipPath id="clip0_3869_7621">
<rect width="10" height="10" fill="white" transform="translate(0.900391 0.5)"/>
</clipPath>
</defs>
</svg>
